<svg xmlns="http://www.w3.org/2000/svg" xmlns:xlink="http://www.w3.org/1999/xlink" width="384" zoomAndPan="magnify" viewBox="0 0 288 287.999989" height="384" preserveAspectRatio="xMidYMid meet" version="1.0"><rect x="-28.8" width="345.6" fill="#ffffff" y="-28.799999" height="345.599986" fill-opacity="1"/><rect x="-28.8" width="345.6" fill="#ffffff" y="-28.799999" height="345.599986" fill-opacity="1"/><path fill="#cc6f27" d="M 46.125 46.351562 C 55.800781 62.851562 71.699219 75.976562 86.699219 87.523438 C 98.25 96.375 110.476562 104.324219 122.699219 112.273438 L 167.101562 138.449219 C 160.425781 138.074219 153.300781 138.976562 146.625 138.449219 C 132.75 137.25 112.726562 131.625 99.148438 127.425781 C 76.800781 120.449219 39.601562 104.398438 24.75 86.023438 C 10.050781 67.726562 29.398438 51.75 46.050781 46.5 Z M 46.125 46.351562 " fill-opacity="1" fill-rule="nonzero"/><path fill="#cc6f27" d="M 167.101562 129.898438 C 160.050781 126.601562 153.226562 122.699219 146.476562 118.800781 C 120.074219 103.5 59.476562 65.550781 48.675781 37.273438 C 45.824219 29.773438 45.75 23.25 51.523438 17.101562 C 57.300781 10.949219 59.625 9.898438 62.175781 11.398438 L 163.949219 125.398438 L 167.023438 129.898438 Z M 167.101562 129.898438 " fill-opacity="1" fill-rule="nonzero"/><path fill="#cc6f27" d="M 176.625 129.375 L 68.625 7.574219 C 85.425781 3.449219 100.648438 10.648438 113.324219 21.074219 C 134.324219 38.324219 158.175781 81.675781 168.976562 106.949219 C 172.050781 114 175.351562 121.875 176.550781 129.375 Z M 176.625 129.375 " fill-opacity="1" fill-rule="nonzero"/><path fill="#cc6f27" d="M 187.875 192.226562 C 186 191.476562 182.550781 189.523438 180.75 188.398438 C 178.949219 187.273438 179.851562 188.550781 180 187.425781 C 185.550781 179.398438 189.824219 167.851562 198.375 162.523438 C 200.476562 161.175781 209.625 157.5 211.800781 157.425781 C 215.175781 157.273438 223.351562 165.601562 225.523438 168.375 C 227.699219 171.148438 235.726562 184.5 233.851562 187.648438 C 231.976562 190.800781 228.898438 190.800781 228.148438 191.25 C 215.773438 197.925781 200.699219 197.324219 187.800781 192.300781 Z M 187.875 192.226562 " fill-opacity="1" fill-rule="nonzero"/><path fill="#cc6f27" d="M 124.875 189.449219 C 126.601562 187.726562 132.226562 188.625 130.949219 193.5 L 109.875 224.699219 C 104.925781 241.125 103.726562 261.226562 98.324219 277.125 C 96.523438 282.375 91.199219 281.023438 91.425781 276.449219 L 103.351562 222.148438 C 109.949219 211.800781 117.074219 201.824219 124.050781 191.699219 C 131.023438 181.574219 124.875 189.601562 124.949219 189.523438 Z M 124.875 189.449219 " fill-opacity="1" fill-rule="nonzero"/><path fill="#cc6f27" d="M 187.875 192.226562 C 189.148438 192.675781 190.273438 196.425781 189.300781 197.851562 C 183.824219 204.148438 176.550781 208.949219 171.601562 215.550781 L 185.101562 274.574219 C 184.800781 279.523438 179.023438 279.375 178.125 274.800781 C 175.273438 255.976562 166.800781 235.125 164.476562 216.523438 C 164.324219 215.101562 163.949219 213.449219 164.851562 212.175781 C 170.324219 207.375 175.125 201.226562 180.601562 196.5 C 182.175781 195.148438 185.925781 191.550781 187.949219 192.300781 Z M 187.875 192.226562 " fill-opacity="1" fill-rule="nonzero"/><path fill="#cc6f27" d="M 124.875 189.449219 C 118.875 192.75 110.625 196.351562 104.175781 198.824219 C 83.324219 206.925781 61.726562 210.148438 39.375 206.851562 C 39.074219 205.574219 39.601562 205.949219 40.050781 205.574219 C 41.851562 204.148438 44.925781 202.648438 47.023438 201.375 C 78.375 182.550781 110.25 164.550781 141.824219 146.101562 C 157.351562 144.375 173.699219 144.898438 189 148.199219 C 190.949219 148.648438 202.351562 151.648438 203.023438 152.398438 C 203.699219 153.148438 202.800781 153.375 202.273438 153.675781 C 201 154.351562 199.125 154.574219 197.699219 155.324219 C 185.851562 161.476562 180.601562 173.398438 174.300781 184.425781 C 172.050781 184.425781 165.449219 177.226562 164.175781 178.273438 C 164.550781 179.175781 165.074219 180.074219 164.476562 181.050781 L 143.101562 206.324219 C 143.023438 211.726562 143.476562 217.351562 143.925781 222.824219 C 145.273438 240.226562 148.425781 258.824219 149.023438 276.148438 C 149.25 283.351562 143.101562 282.824219 142.273438 278.398438 C 141.449219 256.050781 136.875 232.726562 136.050781 210.523438 C 135.226562 188.324219 135.601562 205.050781 136.875 202.949219 C 144.449219 195.449219 150.75 185.023438 158.25 177.675781 C 165.75 170.324219 159.976562 176.023438 161.925781 175.726562 C 159.523438 173.773438 156.976562 169.050781 153.375 169.949219 C 149.773438 170.851562 144.523438 176.699219 142.425781 178.125 C 137.101562 181.800781 130.425781 186.375 124.800781 189.449219 Z M 124.875 189.449219 " fill-opacity="1" fill-rule="nonzero"/><path fill="#cc6f27" d="M 258.523438 202.875 C 258.523438 203.6875 258.445312 204.492188 258.289062 205.289062 C 258.128906 206.085938 257.894531 206.859375 257.582031 207.609375 C 257.273438 208.363281 256.890625 209.074219 256.4375 209.75 C 255.988281 210.425781 255.476562 211.050781 254.902344 211.625 C 254.324219 212.199219 253.699219 212.714844 253.023438 213.164062 C 252.347656 213.617188 251.636719 213.996094 250.886719 214.308594 C 250.136719 214.617188 249.359375 214.855469 248.5625 215.011719 C 247.765625 215.171875 246.960938 215.25 246.148438 215.25 C 245.335938 215.25 244.53125 215.171875 243.734375 215.011719 C 242.9375 214.855469 242.164062 214.617188 241.414062 214.308594 C 240.664062 213.996094 239.949219 213.617188 239.273438 213.164062 C 238.597656 212.714844 237.972656 212.199219 237.398438 211.625 C 236.824219 211.050781 236.3125 210.425781 235.859375 209.75 C 235.410156 209.074219 235.027344 208.363281 234.71875 207.609375 C 234.40625 206.859375 234.171875 206.085938 234.011719 205.289062 C 233.855469 204.492188 233.773438 203.6875 233.773438 202.875 C 233.773438 202.0625 233.855469 201.257812 234.011719 200.460938 C 234.171875 199.664062 234.40625 198.890625 234.71875 198.140625 C 235.027344 197.386719 235.410156 196.675781 235.859375 196 C 236.3125 195.324219 236.824219 194.699219 237.398438 194.125 C 237.972656 193.550781 238.597656 193.035156 239.273438 192.585938 C 239.949219 192.132812 240.664062 191.753906 241.414062 191.441406 C 242.164062 191.132812 242.9375 190.894531 243.734375 190.738281 C 244.53125 190.578125 245.335938 190.5 246.148438 190.5 C 246.960938 190.5 247.765625 190.578125 248.5625 190.738281 C 249.359375 190.894531 250.136719 191.132812 250.886719 191.441406 C 251.636719 191.753906 252.347656 192.132812 253.023438 192.585938 C 253.699219 193.035156 254.324219 193.550781 254.902344 194.125 C 255.476562 194.699219 255.988281 195.324219 256.4375 196 C 256.890625 196.675781 257.273438 197.386719 257.582031 198.140625 C 257.894531 198.890625 258.128906 199.664062 258.289062 200.460938 C 258.445312 201.257812 258.523438 202.0625 258.523438 202.875 Z M 258.523438 202.875 " fill-opacity="1" fill-rule="nonzero"/><path fill="#cc6f27" d="M 258.148438 214.726562 L 268.199219 238.726562 C 269.625 243.449219 264.300781 245.773438 262.050781 241.5 L 252.148438 218.25 C 250.949219 216.824219 257.925781 214.5 258.226562 214.726562 Z M 258.148438 214.726562 " fill-opacity="1" fill-rule="nonzero"/></svg>